<svg width="71" height="52" viewBox="0 0 71 52" fill="none" xmlns="http://www.w3.org/2000/svg">
<path d="M67 29.5001C68.933 29.5001 70.5 27.9331 70.5 26.0001C70.5 24.0671 68.933 22.5001 67 22.5001L67 29.5001ZM1.52513 23.5252C0.158291 24.892 0.158291 27.1081 1.52513 28.4749L23.799 50.7488C25.1658 52.1156 27.3819 52.1156 28.7487 50.7488C30.1156 49.382 30.1156 47.1659 28.7487 45.7991L8.94975 26.0001L28.7487 6.20107C30.1156 4.83424 30.1156 2.61816 28.7487 1.25133C27.3819 -0.115508 25.1658 -0.115508 23.799 1.25133L1.52513 23.5252ZM67 22.5001L4 22.5001L4 29.5001L67 29.5001L67 22.5001Z" fill="white"/>
</svg>
