<svg width="86" height="86" viewBox="0 0 86 86" fill="none" xmlns="http://www.w3.org/2000/svg">
<path d="M23.6983 48.0362C21.3796 43.2133 20.9039 37.7091 22.3607 32.5599C23.8174 27.4107 27.1062 22.9716 31.608 20.0782C36.1097 17.1849 41.5138 16.037 46.8029 16.8505C52.092 17.664 56.9013 20.3829 60.3255 24.4953C63.7497 28.6077 65.5525 33.8299 65.3945 39.1789C65.2365 44.5279 63.1287 49.6347 59.4679 53.5379M2.6328 48.889C13.9307 58.3618 31.5901 42.8243 42.4626 42.8422C52.9354 42.8594 63.2301 60.6366 70.4021 73.3651M84 43C84 53.8739 79.6804 64.3024 71.9914 71.9914C64.3024 79.6804 53.8739 84 43 84C32.1261 84 21.6976 79.6804 14.0086 71.9914C6.31963 64.3024 2 53.8739 2 43C2 32.1261 6.31963 21.6976 14.0086 14.0086C21.6976 6.31963 32.1261 2 43 2C53.8739 2 64.3024 6.31963 71.9914 14.0086C79.6804 21.6976 84 32.1261 84 43Z" fill="white"/>
<path d="M23.6983 48.0362C21.3796 43.2133 20.9039 37.7091 22.3607 32.5599C23.8174 27.4107 27.1062 22.9716 31.608 20.0782C36.1097 17.1849 41.5138 16.037 46.8029 16.8505C52.092 17.664 56.9013 20.3829 60.3255 24.4953C63.7497 28.6077 65.5525 33.8299 65.3945 39.1789C65.2365 44.5279 63.1287 49.6347 59.4679 53.5379M2.6328 48.889C13.9307 58.3618 31.5901 42.8243 42.4626 42.8422C52.9354 42.8594 63.2301 60.6366 70.4021 73.3651M84 43C84 53.8739 79.6804 64.3024 71.9914 71.9914C64.3024 79.6804 53.8739 84 43 84C32.1261 84 21.6976 79.6804 14.0086 71.9914C6.31963 64.3024 2 53.8739 2 43C2 32.1261 6.31963 21.6976 14.0086 14.0086C21.6976 6.31963 32.1261 2 43 2C53.8739 2 64.3024 6.31963 71.9914 14.0086C79.6804 21.6976 84 32.1261 84 43Z" stroke="url(#paint0_linear_82_20)" stroke-width="2.5" stroke-linecap="round" stroke-linejoin="round"/>
<defs>
<linearGradient id="paint0_linear_82_20" x1="43" y1="2" x2="43" y2="84" gradientUnits="userSpaceOnUse">
<stop stop-color="#19E9F3"/>
<stop offset="1" stop-color="#718EF8"/>
</linearGradient>
</defs>
</svg>
